<?xml version="1.0" encoding="UTF-8"?> <svg xmlns="http://www.w3.org/2000/svg" width="500" height="500" viewBox="0 0 500 500" fill="none"> <g clip-path="url(#clip0_428_221)"> <path d="M425.966 43.2799C414.26 32.6438 363.73 0.894178 258.296 0.434282C258.296 0.434282 133.447 -7.7686 72.8409 47.1263C39.1095 80.4312 27.7459 129.958 26.5 190.397C25.2541 250.835 18.7988 366.295 129.35 397.007C129.35 397.007 128.915 482.724 128.865 490.258C128.865 495.525 129.701 499.129 132.711 499.874C134.877 500.4 138.121 499.28 140.88 496.529C158.557 478.777 215.15 410.503 215.15 410.503C291.083 415.462 351.496 400.469 357.993 398.345C373.312 393.42 456.169 386.304 470.192 273.036C484.682 156.281 464.865 76.5848 425.966 43.2799Z" fill="#7360F2"></path> <path d="M311.904 185.43C310.533 157.786 296.49 143.267 269.777 141.873" stroke="white" stroke-width="14.0979" stroke-linecap="round" stroke-linejoin="round"></path> <path d="M347.619 197.509C348.176 171.755 340.547 150.238 324.732 132.957C308.845 115.614 286.854 106.065 258.633 104" stroke="white" stroke-width="14.0979" stroke-linecap="round" stroke-linejoin="round"></path> <path d="M385.094 212.037C384.754 167.346 371.401 132.149 345.033 106.445C318.666 80.7405 285.874 67.7519 246.657 67.4788" stroke="white" stroke-width="14.0979" stroke-linecap="round" stroke-linejoin="round"></path> <path d="M271.174 279.842C271.174 279.842 281.083 280.678 286.417 274.106L296.819 261.02C301.837 254.531 313.944 250.392 325.801 256.998C334.687 262.065 343.313 267.574 351.648 273.504C359.516 279.29 375.629 292.736 375.679 292.736C383.355 299.216 385.128 308.732 379.902 318.766C379.902 318.825 379.86 318.925 379.86 318.975C374.104 328.953 366.796 337.952 358.211 345.632C358.111 345.683 358.111 345.733 358.019 345.783C350.56 352.015 343.233 355.558 336.036 356.411C334.977 356.596 333.9 356.664 332.825 356.611C329.652 356.642 326.494 356.156 323.477 355.173L323.243 354.83C312.155 351.703 293.642 343.877 262.812 326.869C244.972 317.142 227.987 305.923 212.04 293.33C204.047 287.021 196.422 280.259 189.204 273.078L188.434 272.308L187.665 271.539L186.896 270.77C186.637 270.519 186.386 270.26 186.127 270C178.945 262.782 172.183 255.158 165.874 247.164C153.283 231.219 142.064 214.237 132.335 196.4C115.328 165.562 107.501 147.066 104.374 135.961L104.031 135.727C103.051 132.709 102.568 129.552 102.601 126.379C102.542 125.305 102.607 124.227 102.793 123.168C103.691 115.982 107.239 108.649 113.438 101.168C113.488 101.076 113.538 101.076 113.588 100.976C121.267 92.391 130.266 85.0858 140.246 79.3357C140.296 79.3357 140.396 79.2855 140.455 79.2855C150.489 74.0594 160.004 75.8321 166.476 83.4664C166.527 83.5165 179.947 99.6296 185.708 107.498C191.639 115.841 197.148 124.475 202.215 133.369C208.82 145.218 204.681 157.351 198.193 162.351L185.106 172.753C178.501 178.088 179.37 187.997 179.37 187.997C179.37 187.997 198.753 261.354 271.174 279.842Z" fill="white"></path> </g> <defs> <clipPath id="clip0_428_221"> <rect width="500" height="500" fill="white"></rect> </clipPath> </defs> </svg> 