<?xml version="1.0" encoding="UTF-8"?> <svg xmlns="http://www.w3.org/2000/svg" width="500" height="500" viewBox="0 0 500 500" fill="none"> <path d="M250.092 0.0012207C133.147 0.0012207 38.043 95.0612 38 211.904C37.9827 251.945 49.1892 290.943 70.4103 324.687L75.4552 332.704L54.0323 410.901L134.274 389.864L142.022 394.455C174.566 413.768 211.877 423.98 249.929 423.999H250.009C366.864 423.999 461.967 328.929 462.015 212.076C462.036 155.451 440.006 102.203 399.977 62.1483C359.947 22.0938 306.723 0.0251046 250.092 0.0012207Z" fill="url(#paint0_linear_428_223)"></path> <path fill-rule="evenodd" clip-rule="evenodd" d="M186.262 105.298C181.485 94.6881 176.459 94.4732 171.92 94.2869C168.204 94.1292 163.952 94.1388 159.705 94.1388C155.453 94.1388 148.55 95.7343 142.712 102.111C136.869 108.489 120.401 123.904 120.401 155.259C120.401 186.615 143.242 216.91 146.424 221.166C149.61 225.418 190.514 291.817 255.3 317.359C309.136 338.588 320.09 334.365 331.781 333.304C343.466 332.244 369.488 317.889 374.796 303.009C380.108 288.129 380.108 275.38 378.518 272.714C376.922 270.053 372.675 268.463 366.297 265.276C359.924 262.09 328.589 246.67 322.747 244.545C316.904 242.419 312.657 241.358 308.405 247.736C304.158 254.113 291.952 268.463 288.23 272.714C284.513 276.97 280.797 277.501 274.419 274.314C268.046 271.119 247.518 264.398 223.167 242.686C204.22 225.795 191.431 204.935 187.71 198.557C183.993 192.18 187.313 188.731 190.509 185.555C193.371 182.698 196.882 178.112 200.073 174.391C203.25 170.67 204.316 168.014 206.437 163.767C208.563 159.511 207.502 155.79 205.907 152.603C204.316 149.417 191.928 117.899 186.262 105.298Z" fill="white"></path> <defs> <linearGradient id="paint0_linear_428_223" x1="245.691" y1="25.4457" x2="247.841" y2="387.776" gradientUnits="userSpaceOnUse"> <stop stop-color="#57D163"></stop> <stop offset="1" stop-color="#23B33A"></stop> </linearGradient> </defs> </svg> 