<?xml version="1.0" encoding="UTF-8"?> <svg xmlns="http://www.w3.org/2000/svg" width="501" height="500" viewBox="0 0 501 500" fill="none"> <path d="M251 436C371.398 436 469 338.398 469 218C469 97.6019 371.398 0 251 0C130.602 0 33 97.6019 33 218C33 338.398 130.602 436 251 436Z" fill="url(#paint0_linear_428_222)"></path> <path fill-rule="evenodd" clip-rule="evenodd" d="M131.679 215.699C195.23 188.01 237.608 169.756 258.811 160.937C319.352 135.756 331.932 131.382 340.131 131.237C341.935 131.206 345.967 131.653 348.579 133.772C350.784 135.561 351.391 137.979 351.682 139.676C351.972 141.372 352.334 145.237 352.046 148.258C348.765 182.729 334.57 266.38 327.348 304.988C324.292 321.325 318.275 326.803 312.449 327.339C299.79 328.504 290.177 318.972 277.915 310.935C258.728 298.357 247.889 290.528 229.265 278.255C207.741 264.071 221.694 256.276 233.96 243.536C237.17 240.202 292.949 189.466 294.029 184.864C294.164 184.288 294.289 182.143 293.014 181.01C291.74 179.877 289.858 180.264 288.501 180.572C286.576 181.009 255.925 201.268 196.547 241.35C187.847 247.325 179.966 250.235 172.906 250.083C165.122 249.915 150.149 245.682 139.019 242.064C125.366 237.626 114.516 235.28 115.461 227.743C115.953 223.817 121.359 219.802 131.679 215.699Z" fill="white"></path> <defs> <linearGradient id="paint0_linear_428_222" x1="251" y1="0" x2="251" y2="432.766" gradientUnits="userSpaceOnUse"> <stop stop-color="#2AABEE"></stop> <stop offset="1" stop-color="#229ED9"></stop> </linearGradient> </defs> </svg> 